<?xml version="1.0" encoding="UTF-8" standalone="no"?>
<!-- Created with Inkscape (http://www.inkscape.org/) -->

<svg
   xmlns:dc="http://purl.org/dc/elements/1.1/"
   xmlns:cc="http://creativecommons.org/ns#"
   xmlns:rdf="http://www.w3.org/1999/02/22-rdf-syntax-ns#"
   xmlns:svg="http://www.w3.org/2000/svg"
   xmlns="http://www.w3.org/2000/svg"
   xmlns:xlink="http://www.w3.org/1999/xlink"
   xmlns:sodipodi="http://sodipodi.sourceforge.net/DTD/sodipodi-0.dtd"
   xmlns:inkscape="http://www.inkscape.org/namespaces/inkscape"
   id="svg8"
   version="1.1"
   viewBox="0 0 210 297"
   height="297mm"
   width="210mm"
   inkscape:version="0.92.1 r15371"
   sodipodi:docname="adriennecharm.svg">
  <sodipodi:namedview
     inkscape:window-maximized="1"
     inkscape:window-y="624"
     inkscape:window-x="2551"
     inkscape:window-height="1001"
     inkscape:window-width="1920"
     showguides="true"
     showgrid="false"
     inkscape:current-layer="layer1"
     inkscape:document-units="mm"
     inkscape:cy="1436.1071"
     inkscape:cx="354.67819"
     inkscape:zoom="1.0179639"
     inkscape:pageshadow="2"
     inkscape:pageopacity="0.0"
     borderopacity="1.0"
     bordercolor="#666666"
     pagecolor="#ffffff"
     id="base" />
  <defs
     id="defs2">
    <inkscape:path-effect
       effect="skeletal"
       id="path-effect5251"
       is_visible="true"
       pattern="M 3.68291,0 C 2.70612,2.2e-5 1.76934,0.684208 1.07866,1.90204 0.38798,3.119873 -2.999826e-5,4.7715921 0,6.4938301 2.000174e-5,10.080107 1.6489,12.987354 3.68291,12.9874 5.7169201,12.987355 7.3658,10.080108 7.3658201,6.4938301 7.36585,4.7715921 6.9778401,3.119873 6.2871601,1.90204 5.5964802,0.684207 4.6597001,2.2e-5 3.68291,0 c 0,0 0,0 0,0 m 0,2.14292 c 0.6544501,4e-5 1.2820801,0.458461 1.74482,1.2744161 0.4627501,0.8159549 0.7227001,1.922603 0.72268,3.076494 C 6.1503801,8.896582 5.04566,10.844397 3.68291,10.84448 2.32016,10.844397 1.21544,8.896582 1.21542,6.4938301 1.21539,5.3399391 1.47534,4.233291 1.93809,3.4173361 2.40083,2.601381 3.02847,2.14296 3.68291,2.14292 c 0,0 0,0 0,0"
       copytype="repeated"
       prop_scale="1"
       scale_y_rel="false"
       spacing="0"
       normal_offset="0"
       tang_offset="0"
       prop_units="false"
       vertical_pattern="false"
       fuse_tolerance="0" />
    <inkscape:path-effect
       effect="skeletal"
       id="path-effect5214"
       is_visible="true"
       pattern="m 34.140948,21.370799 c -0.258442,5e-6 -0.506298,0.181029 -0.689041,0.503247 -0.182742,0.322219 -0.2854,0.759236 -0.285393,1.214912 6e-6,0.948869 0.436272,1.718078 0.974434,1.71809 0.538166,-1.2e-5 0.974432,-0.769221 0.974437,-1.71809 8e-6,-0.455676 -0.10265,-0.892694 -0.285393,-1.214912 -0.182742,-0.322218 -0.430601,-0.503242 -0.689044,-0.503247 0,0 0,0 0,0 m 0,0.56698 c 0.173157,1.1e-5 0.339217,0.121302 0.461653,0.337189 0.122434,0.215889 0.191212,0.508689 0.191207,0.81399 -8e-6,0.635728 -0.292296,1.151087 -0.65286,1.151109 -0.360561,-2.2e-5 -0.652851,-0.515381 -0.652856,-1.151109 -8e-6,-0.305301 0.06877,-0.598101 0.191206,-0.81399 0.122436,-0.215887 0.288496,-0.337178 0.46165,-0.337189 0,0 0,0 0,0"
       copytype="repeated"
       prop_scale="1"
       scale_y_rel="false"
       spacing="0"
       normal_offset="0"
       tang_offset="0"
       prop_units="false"
       vertical_pattern="false"
       fuse_tolerance="0" />
    <inkscape:perspective
       sodipodi:type="inkscape:persp3d"
       inkscape:vp_x="0 : 148.5 : 1"
       inkscape:vp_y="-121.86934 : 992.54617 : 0"
       inkscape:vp_z="210 : 148.5 : 1"
       inkscape:persp3d-origin="105 : 99 : 1"
       id="perspective4505" />
  </defs>
  <metadata
     id="metadata5">
    <rdf:RDF>
      <cc:Work
         rdf:about="">
        <dc:format>image/svg+xml</dc:format>
        <dc:type
           rdf:resource="http://purl.org/dc/dcmitype/StillImage" />
        <dc:title></dc:title>
      </cc:Work>
    </rdf:RDF>
  </metadata>
  <g
     inkscape:label="Layer 1"
     inkscape:groupmode="layer"
     id="layer1">
    <circle
       r="39.311237"
       cy="-44.646599"
       cx="-159.05957"
       id="path4631"
       style="opacity:1;fill:none;fill-opacity:1;stroke:none;stroke-width:0.5;stroke-miterlimit:4;stroke-dasharray:none;stroke-opacity:1"
       transform="rotate(-141.66612)" />
    <path
       inkscape:connector-curvature="0"
       id="path4575"
       d="m 128.10432,158.32654 -18.32117,10.96034 -21.313107,1.1856 -19.422473,-8.86077 -13.082377,-16.87723 -3.745264,-21.02732 6.449849,-20.36031 15.167366,-15.028997 20.41023,-6.254719 20.977346,3.952439 16.73883,13.254137 8.66562,19.51948 -1.39277,21.31314 z"
       inkscape:transform-center-y="-0.3509563"
       style="opacity:1;fill:#b3b3b3;fill-opacity:1;stroke:none;stroke-width:0.5;stroke-miterlimit:4;stroke-dasharray:none;stroke-opacity:1"
       inkscape:transform-center-x="0.29839788" />
    <path
       style="opacity:1;fill:#f45555;fill-opacity:1;stroke:#960000;stroke-width:0.2;stroke-miterlimit:4;stroke-dasharray:none;stroke-opacity:1"
       inkscape:transform-center-y="-1.0593279"
       d="m 118.17109,135.44517 -12.21052,15.02141 -19.357354,-0.18087 -11.927699,-15.24697 4.483761,-18.83177 17.518849,-8.23588 17.361893,8.5618 z"
       id="path4521"
       inkscape:connector-curvature="0"
       inkscape:transform-center-x="0.046382001" />
    <path
       style="opacity:1;fill:#f45555;fill-opacity:1;stroke:#960000;stroke-width:0.5;stroke-miterlimit:4;stroke-dasharray:none;stroke-opacity:1"
       inkscape:transform-center-y="-0.64899449"
       d="m 109.74729,133.03999 -7.48073,9.20281 -11.859196,-0.11082 -7.307451,-9.34098 2.74695,-11.53721 10.73285,-5.04568 10.636687,5.24536 z"
       id="path4521-2"
       inkscape:connector-curvature="0"
       inkscape:transform-center-x="0.028415121" />
    <path
       style="fill:#f45555;fill-opacity:1;stroke:#960000;stroke-width:0.26458332px;stroke-linecap:butt;stroke-linejoin:miter;stroke-opacity:1"
       d="m 96.579713,116.20811 0.09841,-8.23702"
       id="path4538"
       inkscape:connector-curvature="0" />
    <path
       style="fill:#f45555;fill-opacity:1;stroke:#960000;stroke-width:0.26458332px;stroke-linecap:butt;stroke-linejoin:miter;stroke-opacity:1"
       d="m 107.21641,121.45347 6.82361,-4.92057"
       id="path4540"
       inkscape:connector-curvature="0" />
    <path
       style="fill:#f45555;fill-opacity:1;stroke:#960000;stroke-width:0.26458332px;stroke-linecap:butt;stroke-linejoin:miter;stroke-opacity:1"
       d="m 109.74729,133.03999 8.42381,2.40518"
       id="path4542"
       inkscape:connector-curvature="0" />
    <path
       style="fill:#f45555;fill-opacity:1;stroke:#960000;stroke-width:0.26458332px;stroke-linecap:butt;stroke-linejoin:miter;stroke-opacity:1"
       d="m 102.26656,142.2428 3.69401,8.22378"
       id="path4544"
       inkscape:connector-curvature="0" />
    <path
       style="fill:#f45555;fill-opacity:1;stroke:#960000;stroke-width:0.26458332px;stroke-linecap:butt;stroke-linejoin:miter;stroke-opacity:1"
       d="m 90.407364,142.13199 -3.804148,8.15372"
       id="path4546"
       inkscape:connector-curvature="0" />
    <path
       style="fill:#f45555;fill-opacity:1;stroke:#960000;stroke-width:0.26458332px;stroke-linecap:butt;stroke-linejoin:miter;stroke-opacity:1"
       d="m 83.099913,132.791 -8.424396,2.24774"
       id="path4548"
       inkscape:connector-curvature="0" />
    <path
       style="fill:#f45555;fill-opacity:1;stroke:#960000;stroke-width:0.26458332px;stroke-linecap:butt;stroke-linejoin:miter;stroke-opacity:1"
       d="m 85.846863,121.25379 -6.687585,-5.04682"
       id="path4550"
       inkscape:connector-curvature="0" />
    <path
       inkscape:connector-curvature="0"
       id="path4573"
       d="m 99.609678,89.153709 a 3.1865729,3.653559 0 0 1 -3.186569,3.653557 3.1865729,3.653559 0 0 1 -3.186569,-3.653557 3.1865729,3.653559 0 0 1 3.186569,-3.653562 3.1865729,3.653559 0 0 1 3.186569,3.653562 z"
       style="opacity:1;fill:#ffffff;fill-opacity:1;stroke:none;stroke-width:0.49999997;stroke-miterlimit:4;stroke-dasharray:none;stroke-opacity:1" />
    <text
       id="text4650"
       y="19.931408"
       x="94.868706"
       style="font-style:normal;font-variant:normal;font-weight:normal;font-stretch:normal;font-size:3.52777767px;line-height:1.25;font-family:Rellanic;-inkscape-font-specification:Rellanic;letter-spacing:0px;word-spacing:0px;fill:#000000;fill-opacity:1;stroke:none;stroke-width:0.07000433"
       xml:space="preserve"><tspan
         style="stroke-width:0.07000433"
         y="23.530149"
         x="94.868706"
         id="tspan4648"
         sodipodi:role="line" /></text>
    <text
       id="text4654"
       y="-44.26741"
       x="41.326366"
       style="font-style:normal;font-variant:normal;font-weight:normal;font-stretch:normal;font-size:3.52777767px;line-height:1.25;font-family:'Old English Text MT';-inkscape-font-specification:'Old English Text MT';letter-spacing:0px;word-spacing:0px;fill:#000000;fill-opacity:1;stroke:none;stroke-width:0.07000433"
       xml:space="preserve"><tspan
         style="stroke-width:0.07000433"
         y="-40.882172"
         x="41.326366"
         id="tspan4652"
         sodipodi:role="line" /></text>
    <text
       id="text4658"
       style="font-style:normal;font-variant:normal;font-weight:normal;font-stretch:normal;font-size:8.97767639px;line-height:1.25;font-family:'Perpetua Titling MT';-inkscape-font-specification:'Perpetua Titling MT';letter-spacing:0px;word-spacing:0px;fill:#000000;fill-opacity:1;stroke:none;stroke-width:0.07000434"
       xml:space="preserve"><textPath
         xlink:href="#path4646"
         id="textPath4669"></textPath></text>
    <text
       xml:space="preserve"
       style="font-style:normal;font-variant:normal;font-weight:normal;font-stretch:normal;font-size:7.93434811px;line-height:1.25;font-family:'Perpetua Titling MT';-inkscape-font-specification:'Perpetua Titling MT';letter-spacing:0px;word-spacing:0px;fill:#333333;fill-opacity:1;stroke:none;stroke-width:0.3641676;"
       id="text4675"
       transform="matrix(0.94982091,0,0,0.94982091,3.9929466,11.520965)"><textPath
         xlink:href="#path4631"
         id="textPath4684"
         style="font-style:normal;font-variant:normal;font-weight:normal;font-stretch:normal;font-family:Rellanic;-inkscape-font-specification:Rellanic;stroke-width:0.3641676;fill:#333333;">Charm of broken Dreams</textPath></text>
    <path
       style="fill:#ffcc00;stroke:none;stroke-width:0.26458332px;stroke-linecap:butt;stroke-linejoin:miter;stroke-opacity:1"
       d="m 86.158994,86.166872 c 0.232131,0.885886 1.104977,1.572834 2.44038,1.934483 1.330669,0.360366 3.034284,0.370934 4.709967,-0.0079 3.498499,-0.790827 5.9631,-3.092277 5.401301,-5.224869 -0.560378,-2.126831 -3.836238,-2.91565 -7.268951,-1.893986 -1.64619,0.489928 -3.123297,1.332351 -4.106368,2.302489 -0.985676,0.972709 -1.408363,2.00406 -1.176329,2.889754 z m 2.071021,-0.544212 c -0.158981,-0.606329 0.124395,-1.307582 0.788256,-1.960064 0.662647,-0.6513 1.656889,-1.205354 2.763799,-1.522286 2.307349,-0.660655 4.491634,-0.117197 4.857551,1.272517 0.366209,1.391486 -1.26844,2.939931 -3.605158,3.496949 -1.120322,0.267079 -2.259606,0.272433 -3.156159,0.03132 -0.89855,-0.241639 -1.489216,-0.712075 -1.648289,-1.318438 z m -4.053944,-6.121953 c 0.29088,0.877523 1.210207,1.514012 2.567954,1.790784 1.353581,0.275923 3.052073,0.172951 4.697666,-0.316862 3.433527,-1.021948 5.742142,-3.475564 5.058931,-5.547759 -0.681445,-2.066541 -3.99453,-2.661057 -7.366453,-1.442296 -1.617155,0.584489 -3.04339,1.511122 -3.966973,2.542413 -0.925651,1.0336 -1.281911,2.096344 -0.991125,2.97372 z m 2.03355,-0.672182 c -0.198253,-0.598819 0.04029,-1.319582 0.663379,-2.012805 0.622116,-0.692154 1.582014,-1.304334 2.669232,-1.686447 2.266227,-0.796497 4.477693,-0.384987 4.92484,0.96978 0.447546,1.356514 -1.084033,3.005276 -3.37774,3.713393 -1.100148,0.339661 -2.235883,0.419268 -3.147125,0.234826 -0.912989,-0.184788 -1.534246,-0.619918 -1.732586,-1.218747 z m -4.424267,-5.929842 c 0.340274,0.869681 1.297259,1.462821 2.671407,1.666841 1.370546,0.203484 3.060914,0.0034 4.677408,-0.58095 3.371616,-1.218693 5.539437,-3.796807 4.755589,-5.809935 -0.781818,-2.00766 -4.119883,-2.436179 -7.431876,-1.055263 -1.588925,0.662471 -2.96915,1.657485 -3.840449,2.738588 -0.872879,1.083066 -1.172251,2.171177 -0.832079,3.040719 z m 1.997226,-0.779467 c -0.231235,-0.591641 -0.03116,-1.327857 0.556029,-2.054177 0.586437,-0.725401 1.515193,-1.385118 2.583287,-1.821295 2.225901,-0.909001 4.455904,-0.610331 4.970636,0.710362 0.515214,1.32239 -0.923972,3.053019 -3.17647,3.889158 -1.080622,0.401155 -2.210829,0.544091 -3.13276,0.408245 -0.92343,-0.136059 -1.569399,-0.540646 -1.800722,-1.132293 z m -4.72463,-5.762358 c 0.380293,0.862351 1.366146,1.419271 2.750736,1.562652 1.381533,0.143065 3.060842,-0.137836 4.649196,-0.800134 3.312538,-1.381187 5.355209,-4.055876 4.491275,-6.011395 -0.861713,-1.950264 -4.212084,-2.240944 -7.465221,-0.732887 -1.561519,0.723851 -2.900561,1.771463 -3.726795,2.891015 -0.827381,1.121105 -1.079367,2.228556 -0.699191,3.090749 z m 1.962048,-0.866064 c -0.25792,-0.584797 -0.08997,-1.332411 0.466204,-2.084181 0.555618,-0.751031 1.456422,-1.447717 2.505965,-1.926831 2.186473,-0.998132 4.426166,-0.793265 4.994942,0.494263 0.569315,1.289167 -0.788365,3.083106 -3.001348,4.024245 -1.061731,0.451556 -2.184461,0.646906 -3.113066,0.551577 -0.929867,-0.09545 -1.594684,-0.474264 -1.852697,-1.059073 z M 76.06203,59.873662 c 0.322426,0.667209 1.006967,1.134091 1.952821,1.352094 0.265412,0.06131 0.551551,0.102959 0.856057,0.123753 1.386518,0.09468 3.051877,-0.250669 4.613028,-0.974415 1.997959,-0.926221 3.491832,-2.305091 4.141545,-3.688369 0.409717,-0.871612 0.479541,-1.737777 0.126613,-2.466929 -0.920071,-1.900657 -4.270033,-2.084653 -7.473325,-0.47557 -1.537356,0.772224 -2.841358,1.860536 -3.628953,3.007834 -0.788501,1.148618 -1.000342,2.267782 -0.587786,3.121602 z m 1.92886,-0.932887 c -0.279192,-0.577696 -0.138015,-1.332212 0.391832,-2.102417 0.52941,-0.769585 1.406127,-1.494458 2.438885,-2.007011 2.151544,-1.067816 4.392681,-0.936827 5.001627,0.321337 0.399569,0.825814 -0.02148,1.913427 -0.980574,2.848347 0,0 0,0 0,0 -0.49519,0.482733 -1.132515,0.924175 -1.873128,1.272551 -0.718416,0.33795 -1.469668,0.555343 -2.171306,0.637606 -0.318008,0.03731 -0.626165,0.04692 -0.916927,0.02735 -0.932536,-0.06274 -1.611134,-0.420079 -1.890409,-0.997763 z m -5.148872,-5.481733 c 0.439606,0.845715 1.464671,1.346212 2.857102,1.400185 1.3905,0.0539 3.042601,-0.342865 4.579649,-1.115001 3.203949,-1.609458 5.053842,-4.407175 4.0853,-6.271946 -0.967059,-1.86172 -4.31812,-1.955798 -7.479191,-0.263464 -1.517224,0.812249 -2.792058,1.934165 -3.547663,3.104582 -0.756299,1.171493 -0.934716,2.300002 -0.495197,3.145644 z m 1.901138,-0.987815 c -0.296832,-0.571231 -0.177925,-1.331142 0.330069,-2.116541 0.507653,-0.784888 1.364352,-1.533101 2.383148,-2.07338 2.122342,-1.125514 4.364987,-1.056072 5.006559,0.178789 0.641894,1.235844 -0.590655,3.111298 -2.732145,4.199595 -1.027768,0.52233 -2.132808,0.792792 -3.066399,0.757203 -0.934399,-0.03561 -1.62432,-0.374454 -1.921232,-0.945666 z m -5.305814,-5.371393 c 0.461777,0.839622 1.501427,1.318917 2.896292,1.339701 1.393268,0.02076 3.034355,-0.418581 4.551244,-1.230719 3.161297,-1.6925 4.939793,-4.534444 3.934464,-6.364746 -1.003778,-1.827289 -4.354612,-1.849046 -7.48092,-0.09123 -1.50077,0.843807 -2.75196,1.992025 -3.481565,3.181062 -0.730103,1.189851 -0.881205,2.32638 -0.419515,3.165935 z m 1.878029,-1.032201 c -0.311257,-0.566169 -0.210533,-1.330582 0.279635,-2.128152 0.489915,-0.797175 1.330284,-1.563837 2.337589,-2.126167 2.098192,-1.171335 4.341345,-1.151595 5.008718,0.06296 0.667717,1.215525 -0.518289,3.120211 -2.632088,4.262209 -1.014611,0.548176 -2.112548,0.846236 -3.047639,0.832748 -0.93575,-0.01349 -1.634878,-0.337446 -1.946215,-0.903594 z m -5.431132,-5.287454 c 0.479157,0.83563 1.53023,1.299113 2.926765,1.294182 1.395265,-0.0049 3.026974,-0.477831 4.527418,-1.321524 3.126589,-1.758016 4.847615,-4.633199 3.815727,-6.433529 -1.030286,-1.797352 -4.379446,-1.764411 -7.478509,0.04112 -1.488,0.866895 -2.721059,2.034117 -3.430659,3.237273 -0.709918,1.203694 -0.839807,2.346916 -0.360742,3.182475 z m 1.859535,-1.066043 c -0.322469,-0.562512 -0.235843,-1.330531 0.240528,-2.13725 0.4762,-0.806447 1.303923,-1.586669 2.302209,-2.165376 2.079121,-1.205282 4.321728,-1.223386 5.008104,-0.02616 0.686738,1.198193 -0.462157,3.1248 -2.553537,4.308732 -1.00394,0.568355 -2.095874,0.887988 -3.031948,0.891602 -0.936586,0.0036 -1.642808,-0.309058 -1.965356,-0.871549 z M 62.218949,34.48422 c 0.491739,0.833736 1.551081,1.286798 2.948519,1.263627 1.396489,-0.02316 3.020463,-0.520621 4.508172,-1.387416 3.099765,-1.805989 4.777367,-4.703458 3.72909,-6.478294 -0.336114,-0.569016 -0.911724,-0.948934 -1.640127,-1.140535 -1.535577,-0.405887 -3.743065,0.02727 -5.832397,1.274142 -1.478857,0.882528 -2.699121,2.062451 -3.394474,3.274374 -0.241961,0.421713 -0.413634,0.835534 -0.51398,1.230799 -0.188128,0.742018 -0.125533,1.419453 0.195197,1.963303 z m 1.845653,-1.089344 c -0.330463,-0.56026 -0.253855,-1.330988 0.212749,-2.143833 0.01987,-0.03461 0.04038,-0.06918 0.06151,-0.103696 0,0 10e-7,-1e-6 10e-7,-1e-6 0.475013,-0.775378 1.265926,-1.522772 2.215429,-2.087308 0.987399,-0.587073 2.013857,-0.903589 2.894096,-0.944208 0.961083,-0.04476 1.746609,0.239189 2.110691,0.85565 0.698981,1.183838 -0.422287,3.125073 -2.496493,4.339163 -0.995754,0.582866 -2.082786,0.918049 -3.019324,0.933764 -0.936908,0.01573 -1.648114,-0.289289 -1.978658,-0.849531 z M 58.472596,28.20886 c 0.501342,0.831313 1.567148,1.276061 2.965288,1.2398 1.397431,-0.03624 3.015784,-0.550509 4.494322,-1.432916 3.079886,-1.838058 4.729188,-4.751371 3.669771,-6.511716 -1.057987,-1.757792 -4.402861,-1.662043 -7.471168,0.199016 -1.473414,0.893665 -2.685372,2.082787 -3.370764,3.302801 -0.685477,1.220165 -0.788711,2.371751 -0.287449,3.203015 z m 1.836347,-1.106297 c -0.336489,-0.558247 -0.267357,-1.330646 0.192267,-2.148175 0.459561,-0.817435 1.272247,-1.613396 2.259869,-2.211247 2.05672,-1.245037 4.297304,-1.307389 5.004551,-0.132816 0.707558,1.175413 -0.395377,3.127291 -2.457207,4.361988 -0.989977,0.592857 -2.073587,0.938829 -3.010573,0.963221 -0.937256,0.02441 -1.652342,-0.274753 -1.988907,-0.832971 z M 54.66574,21.934508 c 0.507533,0.832849 1.578257,1.275048 2.977778,1.231441 1.399088,-0.04359 3.014174,-0.56935 4.487291,-1.462905 3.068296,-1.861099 4.698324,-4.784296 3.635647,-6.529865 -1.061235,-1.743025 -4.405033,-1.635788 -7.469087,0.233423 -1.471649,0.897749 -2.680436,2.090137 -3.361295,3.314732 -0.680806,1.224498 -0.777784,2.380379 -0.270334,3.213174 z m 1.831617,-1.115619 c -0.340206,-0.558458 -0.275117,-1.332986 0.181151,-2.153294 0.456268,-0.820325 1.266351,-1.619152 2.252341,-2.220493 2.053061,-1.252146 4.293329,-1.323255 5.00399,-0.156304 0.710976,1.167788 -0.380299,3.126094 -2.435178,4.374584 -0.986703,0.599518 -2.068414,0.952424 -3.006214,0.981626 -0.937946,0.02921 -1.655807,-0.267688 -1.99609,-0.826119 z m -5.669329,-5.176946 c 0.509726,0.836474 1.582993,1.280931 2.983673,1.236442 1.400522,-0.04448 3.014288,-0.574128 4.485668,-1.471783 3.064409,-1.869474 4.688078,-4.79414 3.630499,-6.5293039 -1.056136,-1.7326202 -4.398363,-1.629307 -7.465819,0.2333599 -1.473568,0.894779 -2.684311,2.084504 -3.366068,3.310168 -0.681567,1.225321 -0.777592,2.384702 -0.267953,3.221117 z m 1.831473,-1.116166 c -0.341245,-0.560068 -0.276646,-1.336192 0.179907,-2.156928 0.456614,-0.820864 1.267528,-1.618583 2.254353,-2.218688 2.054535,-1.2494107 4.294147,-1.3189472 5.002634,-0.156697 0.708803,1.163087 -0.379482,3.122192 -2.432562,4.374644 -0.985897,0.601455 -2.067014,0.956206 -3.005477,0.985886 -0.938487,0.02969 -1.657533,-0.268174 -1.998855,-0.828217 z M 46.989623,9.3154041 c 0.507917,0.8421889 1.581358,1.2937099 2.982974,1.2548039 1.40173,-0.03891 3.016126,-0.564848 4.489452,-1.4595501 C 57.530234,7.2475014 59.160536,4.329729 58.116374,2.6006256 57.073647,0.87407463 53.733562,0.95799748 50.655011,2.7994515 49.175837,3.6842052 47.958021,4.8653383 47.269928,6.0885614 46.582165,7.3111962 46.481796,8.4732783 46.989623,9.3154041 Z M 48.825536,8.2074662 C 48.485934,7.6443868 48.553591,6.867202 49.01407,6.0483895 c 0.460602,-0.8190511 1.275778,-1.611687 2.265909,-2.2058307 2.061157,-1.2368433 4.29974,-1.2944541 5.000482,-0.1339953 0.701054,1.161298 -0.392942,3.1155969 -2.449359,4.3621673 -0.987559,0.5986678 -2.069387,0.9501757 -3.008364,0.9760029 -0.938879,0.025833 -1.657521,-0.2762114 -1.997202,-0.8392675 z m -5.644849,-5.268335 c 0.502103,0.8499957 1.573355,1.3133843 2.975679,1.2865272 1.402713,-0.026865 3.019691,-0.5415151 4.498645,-1.4262069 3.079584,-1.84211903 4.729592,-4.7446898 3.707126,-6.4720504 -1.02105,-1.7247908 -4.35834,-1.6757773 -7.455719,0.1298216 -1.488473,0.8676728 -2.71847,2.0342873 -3.418341,3.25155626 -0.699396,1.21644219 -0.809403,2.38042364 -0.30739,3.23035224 z m 1.844938,-1.0909349 c -0.335278,-0.5674915 -0.261013,-1.34520055 0.207033,-2.15973983 0.468235,-0.81488577 1.291097,-1.59846617 2.287006,-2.18192197 2.072948,-1.2144553 4.310093,-1.2497634 4.997535,-0.088198 0.687748,1.162408 -0.420697,3.10632075 -2.485569,4.337155 -0.99169,0.5911526 -2.075534,0.9343349 -3.014874,0.9519752 -0.93912,0.017645 -1.655772,-0.2917997 -1.991131,-0.85927 z m -5.594244,-5.3508321 c 0.492285,0.8598943 1.558987,1.3399527 2.961792,1.3316108 1.403468,-0.00835 3.024982,-0.5041327 4.513245,-1.3717523 3.098564,-1.8063363 4.781434,-4.6854484 3.788902,-6.415358 -0.991149,-1.7273167 -4.324903,-1.7287787 -7.448889,0.026346 -1.501468,0.8435347 -2.748745,1.9897069 -3.465839,3.1975078 -0.716468,1.2067448 -0.841405,2.3718197 -0.349211,3.2316453 z m 1.858549,-1.0651569 c -0.328272,-0.5733058 -0.243853,-1.3510008 0.235403,-2.1589177 0.479514,-0.8083674 1.313485,-1.5789206 2.317645,-2.1469614 2.089925,-1.1822572 4.325184,-1.1848642 4.993793,-0.019307 0.668904,1.1664062 -0.462766,3.0943749 -2.541192,4.2996069 -0.998287,0.5789076 -2.085454,0.9086857 -3.025007,0.9138032 -0.939209,0.00512 -1.652288,-0.3149386 -1.980642,-0.8882244 z m -5.518061,-5.4578643 c 0.478456,0.8718851 1.538257,1.3734147 2.941309,1.3900552 1.403995,0.016651 3.032003,-0.4527059 4.533253,-1.2961871 3.125081,-1.7557861 4.85406,-4.6032261 3.899653,-6.3399551 -0.95307,-1.734109 -4.282454,-1.80165 -7.440871,-0.111599 -1.518164,0.812337 -2.787812,1.932147 -3.52758,3.126964 -0.738979,1.193544 -0.884132,2.358904 -0.405764,3.230722 z m 1.876745,-1.030604 c -0.318584,-0.580523 -0.220466,-1.357664 0.273645,-2.15661 0.49444,-0.799495 1.342937,-1.553051 2.357826,-2.100949 2.11211,-1.140259 4.344993,-1.09975 4.989255,0.07268 0.644542,1.173283 -0.51917,3.079769 -2.616228,4.249523 -1.007351,0.561931 -2.09915,0.87323 -3.038764,0.861487 -0.939145,-0.01173 -1.64707,-0.345628 -1.965734,-0.926131 z m -5.416301,-5.589432 c 0.460616,0.885969 1.511165,1.413771 2.914232,1.461861 1.404292,0.04813 3.040753,-0.387239 4.558668,-1.199511 3.159084,-1.690453 4.947519,-4.49804 4.039379,-6.245842 -0.906867,-1.745157 -4.23094,-1.894403 -7.431666,-0.284016 -1.538564,0.774078 -2.835667,1.861612 -3.603561,3.039926 -0.766935,1.176842 -0.937586,2.341674 -0.477052,3.227582 z m 1.899525,-0.987276 c -0.30621,-0.589143 -0.19085,-1.36519 0.321759,-2.152817 0.513016,-0.788268 1.379455,-1.520859 2.407549,-2.043886 2.139525,-1.088462 4.369497,-0.994411 4.983921,0.187763 0.614685,1.183032 -0.589929,3.062509 -2.710676,4.186902 -1.018881,0.540222 -2.116621,0.827971 -3.056144,0.795027 -0.938927,-0.03291 -1.640119,-0.383867 -1.946409,-0.972989 z m -5.288963,-5.745535 c 0.438761,0.902145 1.477716,1.461021 2.88056,1.547027 1.404355,0.0861 3.051237,-0.307734 4.589491,-1.081724 3.200521,-1.610328 5.061865,-4.369896 4.208081,-6.133018 -0.571974,-1.181026 -2.22456,-1.671064 -4.227128,-1.4288 -1.007263,0.122035 -2.106305,0.430709 -3.194124,0.937878 -1.05774,0.49313 -2.009249,1.133304 -2.762747,1.856181 -0.359087,0.344335 -0.672723,0.706884 -0.931061,1.080231 -0.800335,1.156638 -1.001761,2.32013 -0.563072,3.222225 z m 1.926891,-0.935172 c -0.291153,-0.599168 -0.155011,-1.373578 0.379744,-2.147539 0.535244,-0.774685 1.423034,-1.482346 2.466813,-1.97577 2.172195,-1.026873 4.398673,-0.868852 4.977793,0.325939 0.579354,1.195651 -0.675069,3.042598 -2.824537,4.111747 -1.032876,0.513776 -2.13787,0.772908 -3.077149,0.714422 -0.938552,-0.05843 -1.631435,-0.429658 -1.922664,-1.028799 z m -5.136111,-5.937262 c 0.411698,0.924795 1.436723,1.522758 2.839608,1.654761 1.404556,0.132161 3.064182,-0.212532 4.626492,-0.940964 3.249784,-1.515176 5.19827,-4.217949 4.410996,-5.992473 -0.785016,-1.76921 -4.093869,-2.134195 -7.401807,-0.743773 -1.591257,0.66883 -2.960427,1.667025 -3.804265,2.800999 -0.842229,1.131813 -1.082612,2.296794 -0.671024,3.22145 z m 1.95972,-0.870981 c -0.272517,-0.612602 -0.110419,-1.386159 0.451777,-2.143186 0.56288,-0.757961 1.476607,-1.433201 2.539092,-1.888499 2.210225,-0.947142 4.431403,-0.710812 4.966787,0.494971 0.535936,1.207435 -0.777922,3.015044 -2.961882,4.018162 -1.049614,0.482122 -2.16334,0.707036 -3.102323,0.617387 -0.938136,-0.08956 -1.620845,-0.486229 -1.893451,-1.098835 z m -4.920258,-6.182994 c 0.37342,0.949655 1.374775,1.597077 2.772834,1.788672 1.400215,0.19189 3.072223,-0.08846 4.662993,-0.757146 3.309133,-1.390967 5.359172,-4.011298 4.654906,-5.795075 -0.702175,-1.778238 -3.986821,-2.292703 -7.353562,-1.062333 -1.620395,0.592149 -3.033668,1.523457 -3.927814,2.620984 -0.892086,1.094999 -1.182663,2.255415 -0.809357,3.204898 z m 1.99497,-0.785985 c -0.246765,-0.6273 -0.05143,-1.396211 0.543631,-2.128545 0.595948,-0.733437 1.538884,-1.365567 2.620711,-1.771345 2.24966,-0.843829 4.456092,-0.508943 4.936451,0.708311 0.480858,1.218967 -0.903661,2.970103 -3.127286,3.885999 -1.068658,0.440196 -2.190539,0.620339 -3.125949,0.49068 -0.934344,-0.129503 -1.600699,-0.557781 -1.847558,-1.1851 z m -4.630381,-6.454198 c 0.325557,0.974972 1.294523,1.678936 2.681518,1.942331 1.389653,0.263899 3.071082,0.06403 4.691064,-0.52803 3.36924,-1.231326 5.540006,-3.742483 4.937715,-5.535999 -0.600453,-1.787766 -3.844199,-2.481688 -7.272345,-1.445935 -1.650406,0.49862 -3.112146,1.347192 -4.063983,2.396658 -0.949282,1.046649 -1.299419,2.196187 -0.973969,3.170975 z m 2.031198,-0.68008 c -0.214609,-0.642309 0.02025,-1.40236 0.65309,-2.102264 0.633945,-0.701144 1.609052,-1.279521 2.710788,-1.624502 2.290613,-0.717262 4.471565,-0.263929 4.884023,0.965228 0.41288,1.230926 -1.054762,2.907476 -3.31875,3.712512 -1.088214,0.386972 -2.21625,0.511504 -3.14393,0.333624 -0.926385,-0.177624 -1.570519,-0.642261 -1.785221,-1.284598 z m -4.269612,-6.749671 c 0.268098,1.000736 1.195977,1.768341 2.565661,2.115736 1.372854,0.348199 3.06078,0.244919 4.710705,-0.253618 3.429812,-1.036298 5.741065,-3.411453 5.259424,-5.215244 -0.48016,-1.797906 -3.665694,-2.701037 -7.158157,-1.894577 -1.681297,0.388215 -3.195856,1.138252 -4.212774,2.128021 -1.013826,0.98676 -1.432866,2.119115 -1.164859,3.119682 z m 2.068404,-0.553265 c -0.176041,-0.657633 0.104635,-1.404607 0.780157,-2.064346 0.676873,-0.66107 1.687103,-1.175076 2.809319,-1.447972 2.333216,-0.567393 4.477691,0.02419 4.809506,1.265723 0.332128,1.243338 -1.231353,2.827137 -3.536278,3.4977 -1.108271,0.322446 -2.240481,0.380537 -3.156262,0.14622 -0.914253,-0.233917 -1.530311,-0.739671 -1.706442,-1.397325 z m -3.836346,-7.080683 c 0.198252,1.031364 1.076421,1.874274 2.423581,2.319968 0.04344,0.01437 0.08725,0.02829 0.131422,0.04177 0,0 0,0 0,0 1.327807,0.403494 2.96438,0.400059 4.590572,0.02451 1.683582,-0.388783 3.140091,-1.11777 4.144398,-1.950915 1.078906,-0.892531 1.659357,-1.915103 1.478481,-2.871416 -0.340222,-1.798323 -3.451701,-2.943828 -7.001085,-2.416813 -1.709809,0.253853 -3.281127,0.882434 -4.373763,1.798241 -1.088939,0.912709 -1.591788,2.023425 -1.393606,3.054658 z m 2.106794,-0.401954 c -0.129442,-0.675248 0.205915,-1.405567 0.930641,-2.01583 0.726379,-0.611666 1.77481,-1.046946 2.916994,-1.232669 2.373942,-0.386025 4.470049,0.366634 4.707231,1.616321 0.237314,1.251253 -1.436218,2.722441 -3.782495,3.234669 -1.128943,0.246486 -2.263334,0.227079 -3.163213,-0.07339 -0.898064,-0.299849 -1.479632,-0.853846 -1.609158,-1.529106 z m -3.267043,-7.433028 c 0.108932,1.052553 0.912986,1.973197 2.220082,2.531431 1.311107,0.559947 2.998211,0.704494 4.707536,0.450652 3.550312,-0.527194 6.191674,-2.52939 6.001111,-4.333003 -0.190024,-1.797684 -3.1882,-3.206196 -6.764182,-2.996878 -1.723998,0.100892 -3.342549,0.587097 -4.511182,1.407484 -1.1642,0.817276 -1.762232,1.887961 -1.653365,2.940314 z m 2.133239,-0.222902 c -0.0713,-0.687393 0.325956,-1.389653 1.100546,-1.936464 0.776573,-0.548221 1.857887,-0.890125 3.011136,-0.975373 2.395672,-0.177098 4.418376,0.751701 4.550569,2.00672 0.132217,1.25681 -1.654223,2.585304 -4.038177,2.905171 -1.146798,0.153892 -2.276613,0.04181 -3.149185,-0.333775 -0.870648,-0.374752 -1.403498,-0.97884 -1.474889,-1.666279 z m -2.584661,-7.736837 c 0.0096,1.065298 0.724382,2.062507 1.973802,2.739628 1.253682,0.67943 2.918526,0.973245 4.642167,0.872313 3.57974,-0.209578 6.382081,-1.960671 6.360794,-3.746326 -0.0213,-1.7791 -2.860277,-3.466508 -6.433906,-3.610796 -1.723437,-0.06961 -3.378604,0.254395 -4.61983,0.960959 -1.236008,0.703593 -1.932612,1.719154 -1.923027,2.784222 z m 2.141165,-0.02217 c -0.0065,-0.6939 0.454962,-1.358003 1.277086,-1.829127 0.824459,-0.472474 1.931594,-0.707663 3.085999,-0.680712 2.397517,0.05596 4.31705,1.171398 4.331348,2.419801 0.01416,1.250367 -1.881172,2.407359 -4.281218,2.510341 -1.154642,0.04956 -2.267765,-0.164006 -3.101259,-0.619038 -0.831453,-0.453909 -1.305367,-1.107302 -1.311956,-1.801265 z m -1.809254,-7.998663 c -0.09966,1.069565 0.51062,2.142235 1.684742,2.944557 1.178611,0.805389 2.803265,1.261572 4.526204,1.331098 3.575785,0.144335 6.535436,-1.31204 6.701609,-3.062136 0.165437,-1.743247 -2.467405,-3.724091 -6.010257,-4.258569 -1.708104,-0.257707 -3.389311,-0.115605 -4.699704,0.458664 -1.304388,0.571637 -2.102908,1.51703 -2.202594,2.586386 z m 2.130571,0.200231 c 0.06496,-0.694759 0.592924,-1.310628 1.46026,-1.693821 0.870031,-0.384393 1.99594,-0.499586 3.141586,-0.348686 2.379697,0.313434 4.165847,1.625443 4.049568,2.855564 -0.116634,1.232161 -2.117296,2.188373 -4.511618,2.050179 -1.152448,-0.0665 -2.236818,-0.390386 -3.019435,-0.929175 -0.780475,-0.537302 -1.185246,-1.239247 -1.120361,-1.934061 z m -0.920596,-8.207415 c -0.22438,1.056439 0.257646,2.200795 1.335166,3.134863 0.306357,0.26557 0.652933,0.507672 1.031826,0.723896 0.955926,0.544433 2.105404,0.919364 3.325331,1.103375 1.252537,0.188944 2.461204,0.163189 3.49995,-0.01208 1.896365,-0.319784 3.263571,-1.130797 3.502292,-2.269402 0.357397,-1.705066 -2.031973,-3.978744 -5.484763,-4.915653 -1.66461,-0.45171 -3.350864,-0.504585 -4.718452,-0.08595 -1.361932,0.416899 -2.2669,1.264396 -2.49135,2.320955 z m 2.094602,0.442307 c 0.145355,-0.685354 0.742012,-1.237345 1.648055,-1.518318 0.908722,-0.281814 2.040311,-0.266346 3.160156,0.01533 2.325857,0.585005 3.950242,2.094448 3.69715,3.299029 -0.252957,1.203153 -2.347515,1.927867 -4.714876,1.523951 -1.139753,-0.194443 -2.181788,-0.63743 -2.899275,-1.263488 -0.715208,-0.624059 -1.036477,-1.371174 -0.89121,-2.0565 z m 0.01875,-8.239672 c -0.336963,1.019314 0.0166,2.204971 0.981445,3.252143 0.969102,1.051787 2.450005,1.858467 4.115002,2.31022 3.452176,0.936701 6.664424,0.185023 7.218273,-1.480713 0.555109,-1.6698 -1.570812,-4.194139 -4.906269,-5.501159 -1.607107,-0.62978 -3.279338,-0.86539 -4.683351,-0.6011 -1.398572,0.26325 -2.388049,1.00117 -2.7251,2.020609 z m 2.031928,0.673472 c 0.219197,-0.662373 0.871709,-1.142793 1.802795,-1.321285 0.933661,-0.178996 2.057545,-0.03963 3.140431,0.363069 2.249999,0.836712 3.697991,2.517284 3.307638,3.692922 -0.390104,1.174378 -2.555156,1.656134 -4.857719,0.985724 -1.108769,-0.322806 -2.092924,-0.881229 -2.735132,-1.582752 -0.640285,-0.699408 -0.877116,-1.475335 -0.658013,-2.137678 z m 0.892374,-8.164901 c -0.44023,0.97451 -0.211816,2.18755 0.637365,3.33088 0.852697,1.14806 2.239473,2.11124 3.846784,2.74104 3.332962,1.306 6.614453,0.90261 7.348281,-0.71218 0.735213,-1.61806 -1.123216,-4.35341 -4.311409,-5.99617 -1.535952,-0.79144 -3.177595,-1.19742 -4.601822,-1.0813 -1.418985,0.11569 -2.478876,0.74312 -2.919199,1.71773 z m 1.95235,0.88436 c 0.286805,-0.63423 0.985696,-1.04247 1.930969,-1.12255 0.947751,-0.0803 2.052808,0.17463 3.089599,0.68739 2.154462,1.06551 3.422604,2.89041 2.907162,4.02618 -0.515152,1.13474 -2.723285,1.38349 -4.942894,0.46921 -1.068735,-0.4402 -1.988633,-1.10163 -2.553561,-1.8672 -0.563337,-0.7634 -0.717985,-1.55882 -0.431275,-2.19303 z m 1.713189,-8.01175 c -0.534204,0.92204 -0.427563,2.14852 0.302929,3.37107 0.733332,1.22731 2.016402,2.32842 3.552553,3.11989 3.186788,1.64199 6.496326,1.57113 7.392211,0.0239 0.897163,-1.54955 -0.688633,-4.45681 -3.70018,-6.40066 -1.451186,-0.93671 -3.045592,-1.50067 -4.473864,-1.52655 -1.423189,-0.0258 -2.539365,0.49021 -3.073649,1.4123 z m 1.855868,1.07496 c 0.34819,-0.60093 1.083963,-0.93636 2.032578,-0.92211 0.951012,0.0143 2.02608,0.37646 3.00766,0.98831 2.03948,1.27126 3.123848,3.21394 2.495719,4.29879 -0.627864,1.08408 -2.852133,1.1101 -4.970397,-0.0256 -1.019651,-0.54665 -1.868919,-1.29861 -2.354561,-2.11683 -0.484356,-0.81603 -0.559101,-1.62162 -0.210999,-2.22256 z m 2.458949,-7.75696 c -0.363411,0.51082 -0.508879,1.15611 -0.431966,1.86874 0.04714,0.47242 0.191188,0.97174 0.432351,1.48074 0.610994,1.28955 1.780809,2.50992 3.232311,3.44677 2.104079,1.35808 4.397802,1.88852 5.88215,1.5899 0.643682,-0.13491 1.158997,-0.42596 1.487092,-0.88695 1.074429,-1.50977 -0.253007,-4.52922 -3.107215,-6.70105 -1.373042,-1.04481 -2.922226,-1.73474 -4.336496,-1.88919 -1.41089,-0.15409 -2.554686,0.24277 -3.158227,1.09104 z m 1.749319,1.23737 c 0.396053,-0.55658 1.153101,-0.81627 2.094811,-0.716 0.943338,0.10042 1.986375,0.55134 2.913557,1.24055 1.928303,1.43339 2.837435,3.45641 2.094933,4.49991 -0.359252,0.50475 -1.043293,0.71695 -1.879742,0.66205 -0.913161,-0.0635 -2.029014,-0.44675 -3.07283,-1.14393 -0.961509,-0.64219 -1.733791,-1.47215 -2.138134,-2.33165 -0.01858,-0.0395 -0.0363,-0.0789 -0.05316,-0.11814 -0.351617,-0.80963 -0.337016,-1.56203 0.04057,-2.09279 z m 3.012795,-7.40078 c -0.661521,0.79147 -0.747538,1.98714 -0.230716,3.29767 0.518306,1.31429 1.58988,2.61885 2.963325,3.66389 2.851535,2.16975 6.145084,2.66919 7.349518,1.2415 1.208094,-1.43215 0.09199,-4.52129 -2.625646,-6.87272 -1.306473,-1.13045 -2.815191,-1.92163 -4.221091,-2.17587 -1.403086,-0.25373 -2.573649,0.0539 -3.23539,0.84553 z m 1.66355,1.3535 c 0.435654,-0.52042 1.211587,-0.72154 2.148545,-0.55436 0.938325,0.16742 1.953945,0.68783 2.835998,1.43613 1.835282,1.55699 2.601032,3.62798 1.770484,4.61429 -0.829558,0.98488 -3.040846,0.6337 -4.936411,-0.84181 -0.912009,-0.70989 -1.621418,-1.59196 -1.965085,-2.46857 -0.343025,-0.87495 -0.289049,-1.66529 0.146469,-2.18568 z m 3.505038,-7.10479 c -0.71099,0.73799 -0.871913,1.91411 -0.439214,3.24683 0.433789,1.33608 1.42037,2.7042 2.727107,3.8348 2.713355,2.34767 5.994493,3.06637 7.31556,1.71039 1.324949,-1.36009 0.39401,-4.50021 -2.197234,-6.99861 -1.245327,-1.20074 -2.71544,-2.07755 -4.110685,-2.4185 -1.392955,-0.34039 -2.584307,-0.11307 -3.295534,0.62509 z m 1.584569,1.45069 c 0.469431,-0.48636 1.260215,-0.63493 2.190875,-0.40953 0.93179,0.22567 1.921226,0.80506 2.761789,1.60219 1.749339,1.65894 2.388718,3.76494 1.481651,4.69799 -0.906005,0.93172 -3.10753,0.43605 -4.911856,-1.15532 -0.868033,-0.76555 -1.52123,-1.68873 -1.808858,-2.58022 -0.287162,-0.89001 -0.182891,-1.66879 0.286399,-2.15511 z m 3.925317,-6.81317 c -0.75178,0.68765 -0.977225,1.84102 -0.618643,3.1874 0.359349,1.34926 1.269386,2.76758 2.514976,3.96849 2.587504,2.49474 5.848909,3.39998 7.269581,2.11016 1.424664,-1.29358 0.653372,-4.46595 -1.821977,-7.0787 -1.189625,-1.25569 -2.622955,-2.2025 -4.005278,-2.61709 -1.380511,-0.41405 -2.58665,-0.25806 -3.338659,0.42974 z m 1.512375,1.5289 c 0.497389,-0.45437 1.298977,-0.55642 2.221804,-0.28149 0.923737,0.27518 1.888205,0.90304 2.690929,1.73874 1.67062,1.73924 2.200347,3.8673 1.228431,4.751 -0.970815,0.88248 -3.15813,0.26384 -4.879247,-1.42251 -0.827761,-0.81101 -1.430453,-1.76634 -1.66877,-2.66694 -0.237994,-0.89934 -0.0904,-1.66445 0.406853,-2.1188 z m 4.273632,-6.52591 c -0.783906,0.64046 -1.063459,1.76789 -0.769004,3.11939 0.29497,1.35387 1.136943,2.80898 2.326934,4.06497 2.47368,2.61093 5.708634,3.67007 7.211581,2.44079 1.506975,-1.23269 0.870343,-4.41844 -1.499876,-7.113 -1.139377,-1.29531 -2.537726,-2.29643 -3.904872,-2.77162 -1.365764,-0.47471 -2.580662,-0.38109 -3.364763,0.25947 z m 1.446969,1.58815 c 0.519535,-0.42448 1.327868,-0.48601 2.241329,-0.17027 0.914175,0.31598 1.85488,0.98176 2.623419,1.84579 1.59924,1.79791 2.035802,3.93502 1.010826,4.77333 -1.02386,0.83719 -3.192774,0.11706 -4.838586,-1.64339 -0.791184,-0.84626 -1.349093,-1.82476 -1.54482,-2.72872 -0.195515,-0.90295 -0.01159,-1.65226 0.507832,-2.07674 z m 4.549981,-6.24303 c -0.807375,0.59641 -1.130606,1.69473 -0.890296,3.04281 0.240635,1.3499 1.023059,2.82838 2.162981,4.12422 2.371656,2.69613 5.573894,3.87674 7.14156,2.70231 0.314772,-0.23583 0.544553,-0.54895 0.693648,-0.92112 0,0 0,0 0,0 0.493822,-1.64734 -0.304424,-4.24278 -2.141758,-6.44577 -1.103688,-1.32336 -2.442979,-2.32218 -3.73316,-2.77115 -0.765384,-0.26635 -1.472297,-0.32452 -2.066402,-0.18209 -0.444177,0.0585 -0.839379,0.20912 -1.166573,0.45079 z m 1.38835,1.62844 c 0.332616,-0.24621 0.771755,-0.35016 1.272996,-0.31008 0.284554,0.002 0.594326,0.0589 0.920164,0.1722 0.860812,0.29919 1.759465,0.96478 2.501109,1.84763 1.069893,1.27358 1.617333,2.74782 1.529936,3.84021 0,0 0,0 0,0 -0.06561,0.4474 -0.257995,0.81684 -0.586659,1.0625 -1.065043,0.79588 -3.211556,-0.004 -4.78987,-1.81795 -0.758295,-0.87132 -1.277161,-1.86399 -1.43701,-2.76558 -0.159721,-0.90081 0.05355,-1.63222 0.589334,-2.02893 z m 4.22408,-6.66413 c -0.762378,0.6704 -1.042177,1.84876 -0.782786,3.26539 0.259377,1.41654 1.034213,2.95117 2.136491,4.27275 2.295674,2.75248 5.348824,3.86115 6.805643,2.57724 1.440551,-1.26969 0.911587,-4.59343 -1.268523,-7.43786 -1.050466,-1.3706 -2.355328,-2.43227 -3.658138,-2.93931 -1.299199,-0.50565 -2.470845,-0.40809 -3.232687,0.26179 z m 1.346292,1.66903 c 0.504243,-0.4435 1.279837,-0.50589 2.146402,-0.17017 0.867966,0.33626 1.748501,1.04025 2.460124,1.95139 1.479182,1.89389 1.845774,4.12773 0.860238,4.99609 -0.990506,0.87252 -3.037465,0.11601 -4.568192,-1.73609 -0.735222,-0.88955 -1.248597,-1.91891 -1.41933,-2.86619 -0.170691,-0.947 0.0164,-1.73132 0.520758,-2.17503 z m 4.678277,-6.52771 c -0.842841,0.61704 -1.223806,1.77195 -1.054672,3.19077 0.169361,1.42073 0.871506,2.97629 1.920928,4.34543 2.184447,2.85002 5.196849,4.1314 6.688089,3.03167 1.0075,-0.74306 1.18754,-2.42818 0.639301,-4.36641 -0.275205,-0.96462 -0.738753,-2.01224 -1.390432,-3.01363 -0.636646,-0.97832 -1.400389,-1.82549 -2.233338,-2.45806 -0.398779,-0.30528 -0.810817,-0.56041 -1.227607,-0.75638 -1.284147,-0.60376 -2.500044,-0.58993 -3.342269,0.0266 z m 1.246466,1.7437 c 0.552051,-0.40453 1.351687,-0.40965 2.207243,-0.01 0.857757,0.40079 1.690723,1.16865 2.337185,2.12694 1.342725,1.9904 1.541841,4.20852 0.516985,4.96342 -1.030254,0.75868 -3.048968,-0.12336 -4.492725,-2.04676 -0.693732,-0.92416 -1.152861,-1.96967 -1.262331,-2.91759 -0.109344,-0.94675 0.141441,-1.71138 0.693643,-2.11612 z m 5.606473,-6.17286 c -1.01618,0.54721 -1.58326,1.68946 -1.574907,3.12927 0.0084,1.44166 0.584496,3.04231 1.525182,4.48772 1.955412,3.00467 4.878935,4.59176 6.280277,3.81513 1.319602,-0.73143 1.538956,-4.0171 0.207595,-7.30149 -0.65059,-1.60502 -1.62845,-2.96245 -2.870944,-3.7615 -1.228749,-0.79021 -2.553614,-0.91489 -3.567203,-0.36913 z m 1.028041,1.8863 c 0.645202,-0.34862 1.490143,-0.25845 2.303246,0.25904 0.818806,0.52112 1.512408,1.41023 1.992082,2.46496 0.989502,2.17573 0.873418,4.38779 -0.120858,4.93552 -1.018687,0.561 -2.955118,-0.53513 -4.224385,-2.58225 -0.610602,-0.98477 -0.971705,-2.0644 -0.968549,-3.02429 0.0031,-0.95776 0.372509,-1.70385 1.018464,-2.05298 z m 7.399955,-5.20051 c -1.245421,0.3154 -2.176646,1.33285 -2.531793,2.7515 -0.357551,1.42825 -0.106177,3.09457 0.541944,4.69334 1.337121,3.2985 3.801905,5.43853 4.996147,5.18782 0.01172,-0.002 0.02336,-0.005 0.03494,-0.008 0.92765,-0.2088 2.153716,-3.296 2.118101,-6.77191 -0.01781,-1.74037 -0.43974,-3.36701 -1.452459,-4.54257 -0.980675,-1.13835 -2.359192,-1.63395 -3.642262,-1.32594 0,0 0,0 0,0 -0.02159,0.005 -0.04313,0.0102 -0.06462,0.0157 z m 0.496039,2.08439 c 0.01989,-0.005 0.03984,-0.01 0.05984,-0.0139 0,0 0,0 0,0 0.777295,-0.17233 1.612946,0.14199 2.253525,0.86387 0.664405,0.7487 1.029056,1.81852 1.133348,2.9799 0.210775,2.34701 -0.543347,4.40584 -1.392772,4.62431 -0.01314,0.004 -0.02638,0.007 -0.03972,0.01 -0.966999,0.2141 -2.572191,-1.28182 -3.366782,-3.53331 -0.384314,-1.0889 -0.501887,-2.2103 -0.253085,-3.15123 0.247303,-0.93531 0.836789,-1.58783 1.605647,-1.77934 z m 10.040394,-1.99646 c -1.497199,-0.40597 -2.995246,0.0714 -3.998411,1.22094 -1.012965,1.16081 -1.396466,2.81209 -1.378681,4.54398 0.03604,3.514 1.407173,6.53214 1.883386,6.68221 0.153533,0.0484 0.318592,0.0132 0.512899,-0.0889 0,0 0,0 0,0 0.604535,-0.33297 3.122944,-2.4253 4.559645,-4.59558 0.95554,-1.4434 1.5289,-3.03868 1.273438,-4.5871 -0.158045,-0.95796 -0.626418,-1.79903 -1.350253,-2.41518 -0.4419,-0.35131 -0.954311,-0.6118 -1.502023,-0.76034 z m -0.576461,2.05378 c 0.493553,0.13498 0.930553,0.43049 1.25226,0.84415 0.237563,0.31975 0.403106,0.70073 0.486304,1.12592 0.195336,0.99819 -0.08346,2.09278 -0.627292,3.11751 -0.772294,1.45522 -2.011959,2.6675 -2.689153,3.07863 0,0 0,0 0,0 -0.287305,0.17192 -0.537082,0.24036 -0.762903,0.17337 -0.63351,-0.18809 -1.425773,-2.22211 -1.246076,-4.58941 0.0876,-1.15428 0.435255,-2.22634 1.114931,-2.96416 0.673477,-0.73111 1.593626,-1.02614 2.471929,-0.78601 z m 9.747051,3.7743 c -0.81899,-0.90256 -2.09656,-1.33734 -3.42506,-1.13542 -0.150864,0.0225 -0.302007,0.0533 -0.452998,0.0923 -1.514385,0.39182 -2.754173,1.52812 -3.713694,2.97764 -1.022495,1.54462 -1.755929,3.497 -2.076436,4.60722 -0.282523,1.00388 -0.35032,1.73951 0.01973,2.15601 0.277812,0.31265 0.787689,0.43546 1.479919,0.4194 1.33035,-0.0188 3.561367,-0.58611 5.538509,-1.8185 1.46436,-0.91274 2.64644,-2.11343 3.18927,-3.49817 0.17572,-0.44825 0.27674,-0.89801 0.30273,-1.33901 0.0451,-0.91755 -0.24921,-1.78617 -0.86197,-2.46149 z m -1.592,1.43513 c 0.55673,0.61467 0.67805,1.50748 0.33967,2.42543 -0.0281,0.0764 -0.0592,0.15233 -0.0931,0.22784 0,0 0,0 0,0 -0.37798,0.83303 -1.08184,1.59163 -1.951811,2.19719 -0.892432,0.62121 -1.858369,1.01742 -2.662958,1.204 -0.964821,0.22716 -1.735297,0.17663 -2.096245,-0.22695 -0.51524,-0.57628 -0.161519,-2.09971 0.805123,-3.69288 0,0 10e-7,0 10e-7,0 0.186314,-0.30682 0.399505,-0.61766 0.640844,-0.91815 0.237561,-0.29578 0.493187,-0.56918 0.766076,-0.81194 0,0 0,0 0,0 0,0 0,0 10e-7,-1e-5 0,0 0,0 0,0 0,0 0,0 0,0 0.559674,-0.49822 1.18074,-0.85757 1.829811,-1.01788 0.963072,-0.23787 1.867068,1e-4 2.422608,0.61335 z m 6.60144,6.40185 c -0.49471,-1.06386 -1.64181,-1.773 -3.10279,-1.87404 -1.47875,-0.10228 -3.06584,0.41888 -4.53668,1.33573 -3.007208,1.8745 -4.764075,4.63866 -4.178041,5.94876 0.626167,1.39963 3.894649,1.91256 7.280621,0.71878 1.62852,-0.57415 3.05878,-1.4931 3.93395,-2.64394 0.87334,-1.14842 1.09892,-2.41859 0.60294,-3.48529 z m -1.94989,0.89273 c 0.31245,0.67508 0.16332,1.50063 -0.40958,2.26929 -0.57448,0.77081 -1.5144,1.4104 -2.59683,1.82374 -2.2501,0.85922 -4.446017,0.56279 -4.911323,-0.46803 -0.453172,-1.00431 0.762818,-2.84477 2.845213,-4.01196 1.0101,-0.56619 2.09321,-0.87133 3.06282,-0.79918 0.96218,0.0716 1.69759,0.51197 2.0097,1.18614 z m 4.76893,6.97975 c -0.28697,-1.01386 -1.21044,-1.79685 -2.54791,-2.13833 -0.0328,-0.008 -0.0658,-0.0165 -0.0991,-0.0243 -1.39748,-0.32977 -3.0726,-0.15754 -4.70895,0.41943 -1.7202,0.60651 -3.17735,1.57154 -4.078839,2.53417 -0.875314,0.92759 -1.296352,1.89228 -1.055145,2.74439 0.477921,1.68804 3.653654,2.59519 7.151184,1.80034 1.68261,-0.38237 3.20164,-1.12773 4.21526,-2.131 1.01075,-1.00043 1.41779,-2.16464 1.12347,-3.20465 z m -2.06084,0.58332 c 0.19086,0.6745 -0.0804,1.43877 -0.75162,2.10858 -0.67275,0.67139 -1.68254,1.18675 -2.805,1.4609 -2.33368,0.57001 -4.47517,-0.0126 -4.81162,-1.20081 -0.334063,-1.1804 1.18293,-2.79522 3.46464,-3.54347 1.09942,-0.36056 2.22708,-0.4549 3.15506,-0.23375 0.92445,0.22029 1.55768,0.73434 1.74854,1.40855 z m 3.85069,7.18736 c -0.18869,-1.02576 -1.05963,-1.88074 -2.40479,-2.33958 -1.35114,-0.46087 -3.03908,-0.47836 -4.72379,-0.0954 -3.49121,0.79346 -5.983774,2.97646 -5.652227,4.78333 0.246475,1.34288 1.943507,2.30031 4.208317,2.53518 0.8626,0.0897 1.80999,0.0729 2.78779,-0.0754 0.95411,-0.14462 1.86698,-0.40623 2.67865,-0.76717 0.63725,-0.28349 1.21091,-0.6279 1.69086,-1.02365 1.09134,-0.89987 1.604,-1.99068 1.41519,-3.01729 z m -2.10883,0.38747 c 0.12376,0.6733 -0.21728,1.39546 -0.94462,1.99893 -0.72822,0.60421 -1.77835,1.0372 -2.91879,1.22074 -2.37275,0.38187 -4.4677,-0.38291 -4.69973,-1.64631 -0.23043,-1.25555 1.4543,-2.71134 3.8038,-3.20851 1.13134,-0.23943 2.26455,-0.21217 3.1629,0.0959 0.89592,0.3072 1.47265,0.86626 1.59644,1.53928 z m 3.269,7.2543 c -0.12723,-1.01112 -0.93689,-1.88886 -2.24353,-2.42074 -1.30965,-0.53311 -2.99584,-0.6715 -4.70134,-0.41292 -3.5452,0.53747 -6.17294,2.56507 -5.93292,4.45942 0.2408,1.89977 3.29259,3.21168 6.85757,2.84373 1.71396,-0.17688 3.31269,-0.73285 4.44731,-1.5724 1.13278,-0.8382 1.70011,-1.88581 1.57291,-2.89709 z m -2.12484,0.26825 c 0.0841,0.6681 -0.29461,1.36295 -1.05104,1.92444 -0.75732,0.56216 -1.82632,0.94225 -2.97341,1.06906 -2.38656,0.26383 -4.43927,-0.60596 -4.60366,-1.90424 -0.16403,-1.29667 1.60729,-2.64897 3.98512,-2.98895 1.14316,-0.16347 2.27302,-0.0618 3.1469,0.2951 0.87258,0.35638 1.41192,0.93655 1.49609,1.60459 z m 2.91328,7.33287 c -0.0837,-1.00799 -0.85336,-1.91378 -2.13371,-2.50163 -1.28287,-0.58902 -2.96053,-0.80699 -4.67495,-0.63 -3.56376,0.36786 -6.28689,2.27339 -6.12924,4.19857 0.15818,1.93062 3.15758,3.36755 6.73696,3.13866 1.72013,-0.10997 3.3409,-0.60328 4.5084,-1.39282 1.16604,-0.78854 1.77618,-1.80461 1.69254,-2.81278 z m -2.13475,0.17604 c 0.0553,0.66771 -0.35229,1.34284 -1.13147,1.87117 -0.7799,0.52882 -1.86417,0.86548 -3.01579,0.94586 -2.39671,0.1673 -4.41316,-0.78797 -4.52114,-2.10218 -0.10768,-1.31258 1.72508,-2.58411 4.11494,-2.81385 1.14892,-0.11046 2.27295,0.043 3.12949,0.43734 0.85545,0.39379 1.36863,0.99403 1.42397,1.66166 z m 2.6268,7.39808 c -0.0484,-1.00326 -0.78488,-1.92975 -2.04284,-2.56212 -1.25999,-0.63339 -2.92961,-0.91646 -4.65015,-0.8064 -3.57724,0.22879 -6.3754,2.03394 -6.28369,3.98671 0.0921,1.95822 3.04977,3.49267 6.6369,3.37252 1.72342,-0.0577 3.36035,-0.50164 4.55281,-1.25038 1.1914,-0.74807 1.83537,-1.73688 1.78697,-2.74033 z m -2.14116,0.102 c 0.032,0.66623 -0.39836,1.32452 -1.195,1.82583 -0.79718,0.50165 -1.89276,0.8038 -3.047,0.84756 -2.40257,0.0911 -4.3896,-0.93126 -4.45237,-2.2592 -0.0625,-1.32631 1.8184,-2.53166 4.21669,-2.67157 1.1528,-0.0673 2.27136,0.12835 3.11315,0.55232 0.84093,0.42353 1.33248,1.03891 1.36453,1.70506 z m 2.39925,7.43303 c -0.0215,-0.99693 -0.73147,-1.93679 -1.97091,-2.60222 -1.241,-0.66626 -2.9031,-0.99988 -4.62696,-0.9421 -3.58545,0.12014 -6.43865,1.84679 -6.39626,3.82385 0.0426,1.98246 2.96898,3.58709 6.5574,3.54528 1.72384,-0.0201 3.371,-0.42794 4.58053,-1.1451 1.20888,-0.71677 1.87767,-1.6826 1.8562,-2.67971 z m -2.14403,0.0461 c 0.0142,0.66367 -0.43283,1.30798 -1.24166,1.78842 -0.80919,0.48066 -1.91209,0.75721 -3.06703,0.77414 -2.40423,0.0353 -4.36852,-1.03584 -4.39738,-2.37528 -0.0287,-1.33781 1.88734,-2.49166 4.29038,-2.56211 1.15481,-0.0339 2.26824,0.19407 3.09788,0.64003 0.829,0.44559 1.30347,1.0712 1.31781,1.7348 z m 2.23059,7.437705 c -0.003,-0.989007 -0.69312,-1.934866 -1.91793,-2.621905 -1.2259,-0.68765 -2.88098,-1.05724 -4.60536,-1.03711 -3.5882,0.0418 -6.47682,1.711984 -6.46694,3.709962 0.002,0.443832 0.14558,0.868939 0.40616,1.262484 0,0 0,10e-7 0,10e-7 0.91563,1.380919 3.29862,2.386057 6.0906,2.395033 1.72285,0.0056 3.37451,-0.377528 4.59394,-1.073945 0.66953,-0.382369 1.17742,-0.84141 1.49866,-1.342205 0.26386,-0.409505 0.40215,-0.846837 0.40087,-1.292315 z m -2.14339,0.0084 c 0.001,0.457779 -0.21841,0.902891 -0.62562,1.288014 -0.17965,0.170311 -0.39582,0.328874 -0.64561,0.471685 -0.81602,0.466555 -1.92226,0.725867 -3.07645,0.724996 -1.57751,-0.0012 -2.96084,-0.478112 -3.7237,-1.183776 -0.39914,-0.369653 -0.6299,-0.802929 -0.63207,-1.266784 -0.006,-1.347059 1.93196,-2.464136 4.336,-2.485476 1.15494,-0.0103 2.2636,0.24023 3.08369,0.700467 0.81966,0.459992 1.28159,1.090894 1.28376,1.750874 z m 2.11769,7.450087 c 0.0103,-0.989173 -0.66683,-1.943313 -1.88095,-2.646824 -1.21493,-0.70398 -2.86385,-1.097705 -4.58682,-1.103204 -3.58599,-0.01149 -6.49714,1.617194 -6.51788,3.615113 -0.0207,1.999109 2.85642,3.688351 6.44193,3.749695 1.72246,0.02949 3.37937,-0.330548 4.60828,-1.008714 1.22829,-0.677817 1.92511,-1.616855 1.93544,-2.606066 z m -2.14263,-0.02226 c -0.007,0.659994 -0.47314,1.287098 -1.29535,1.741268 -0.82251,0.454345 -1.93231,0.697883 -3.08626,0.680624 -2.40229,-0.03592 -4.33266,-1.16535 -4.31878,-2.512285 0.014,-1.346575 1.96733,-2.43554 4.36987,-2.422032 1.15416,0.0065 2.25862,0.272814 3.07162,0.744282 0.81266,0.471254 1.26573,1.108171 1.2589,1.768143 z m 2.01594,7.470486 c 0.023,-0.987286 -0.64145,-1.94877 -1.8459,-2.667916 -1.20516,-0.719572 -2.84856,-1.136098 -4.57113,-1.165529 -3.58526,-0.0613 -6.51909,1.528033 -6.56599,3.530291 -0.0468,2.003448 2.80987,3.728581 6.39463,3.833026 1.72198,0.05019 3.38334,-0.289865 4.62039,-0.952033 1.23652,-0.661881 1.94497,-1.590515 1.968,-2.577839 z m -2.1422,-0.05002 c -0.0154,0.659102 -0.48951,1.279534 -1.31733,1.723032 -0.82809,0.443644 -1.94093,0.673465 -3.09459,0.641979 -2.40179,-0.06554 -4.31816,-1.219332 -4.2867,-2.568125 0.0316,-1.348431 1.99967,-2.411332 4.40172,-2.365193 1.1539,0.02214 2.2547,0.30344 3.06129,0.785363 0.80628,0.481731 1.25094,1.123862 1.23561,1.782944 z m 1.9267,7.48443 c 0.0339,-0.985356 -0.61961,-1.95286 -1.81563,-2.685332 -1.19663,-0.732846 -2.83518,-1.169072 -4.55726,-1.219206 -3.58443,-0.104396 -6.53762,1.450958 -6.60692,3.457465 -0.0693,2.007697 2.77013,3.763203 6.35394,3.904034 1.72142,0.06767 3.38644,-0.25548 4.63027,-0.903903 1.2434,-0.648193 1.9617,-1.567665 1.9956,-2.553058 z m -2.14167,-0.07377 c -0.0227,0.658182 -0.50346,1.272773 -1.336,1.707105 -0.83275,0.434452 -1.9481,0.652614 -3.10141,0.609065 -2.40118,-0.09066 -4.30556,-1.26512 -4.25906,-2.615709 0.0466,-1.350227 2.02728,-2.390662 4.42876,-2.316391 1.15359,0.03566 2.25117,0.329822 3.05217,0.82065 0.80073,0.490659 1.23814,1.137117 1.21554,1.79528 z m 1.85115,7.494035 c 0.0429,-0.983383 -0.60133,-1.955582 -1.79016,-2.699069 -1.18934,-0.743808 -2.82367,-1.196629 -4.54519,-1.264238 -3.58349,-0.140778 -6.55273,1.38597 -6.64067,3.396634 -0.0879,2.011853 2.7372,3.792221 6.31986,3.962719 1.72077,0.08191 3.38867,-0.227393 4.63793,-0.864322 1.24892,-0.636756 1.97531,-1.548305 2.01823,-2.531724 z m -2.14104,-0.0935 c -0.0287,0.657232 -0.51499,1.266814 -1.35134,1.693487 -0.83652,0.426769 -1.95384,0.63533 -3.10675,0.581878 -2.40043,-0.111276 -4.29486,-1.302712 -4.23585,-2.655036 0.0592,-1.35196 2.05017,-2.37353 4.451,-2.275626 1.15322,0.04701 2.24802,0.351961 3.04426,0.850145 0.79602,0.498038 1.22732,1.147938 1.19868,1.805152 z m 1.7893,7.499299 c 0.0501,-0.981366 -0.5866,-1.956937 -1.76947,-2.709129 -1.1833,-0.752455 -2.81407,-1.218767 -4.53495,-1.300623 -3.58242,-0.170447 -6.56444,1.333071 -6.66724,3.3478 -0.10277,2.015916 2.71107,3.815632 6.29238,4.00908 1.72006,0.09293 3.39003,-0.205604 4.64338,-0.833293 1.2531,-0.627567 1.98577,-1.532434 2.0359,-2.513835 z m -2.14032,-0.109222 c -0.0335,0.656254 -0.5241,1.261657 -1.36336,1.682178 -0.83938,0.420594 -1.95813,0.621613 -3.1106,0.560421 -2.39956,-0.127395 -4.28604,-1.33211 -4.21705,-2.686107 0.0691,-1.353633 2.06832,-2.359938 4.46841,-2.242898 1.15281,0.0562 2.24525,0.369856 3.03757,0.873846 0.79214,0.50387 1.21849,1.156324 1.18503,1.81256 z m 1.74116,7.500224 c 0.0554,-0.979306 -0.57543,-1.956927 -1.7536,-2.715511 -1.17848,-0.75879 -2.80634,-1.235486 -4.52652,-1.328363 -3.58122,-0.193403 -6.57272,1.292261 -6.68661,3.310961 -0.002,0.02751 -0.003,0.05498 -0.003,0.08241 -0.0346,1.984507 2.7426,3.752396 6.27383,3.960797 1.71945,0.101497 3.39076,-0.188683 4.64714,-0.809548 1.22061,-0.603194 1.95124,-1.470177 2.04246,-2.41786 0,0 0,0 0,0 0.003,-0.02756 0.005,-0.05519 0.006,-0.08289 z m -2.13951,-0.12093 c -0.002,0.02767 -0.004,0.05526 -0.007,0.08273 0,0 0,0 0,0 -0.0723,0.623303 -0.55918,1.192648 -1.36499,1.591 -0.84145,0.415986 -1.96115,0.611256 -3.11318,0.544175 -2.34984,-0.136813 -4.20228,-1.305284 -4.20465,-2.626394 -5e-5,-0.02746 7e-4,-0.05498 0.002,-0.08256 0.0766,-1.355245 2.08177,-2.349885 4.48101,-2.218208 1.15235,0.06322 2.24288,0.383509 3.0321,0.891755 0.78909,0.508153 1.21165,1.162275 1.1746,1.817505 z m 1.70394,7.504768 c 0.06,-0.978865 -0.56629,-1.959086 -1.74071,-2.723137 -1.17467,-0.764221 -2.80015,-1.248967 -4.51966,-1.350407 -3.57997,-0.211237 -6.57873,1.260027 -6.70253,3.278904 -0.12374,2.019403 2.67301,3.846147 6.2521,4.073031 1.71895,0.108987 3.39157,-0.173877 4.65062,-0.788727 1.25886,-0.614756 2.00015,-1.510785 2.06018,-2.489664 z m -2.13888,-0.131115 c -0.0402,0.654977 -0.53663,1.254692 -1.37985,1.666596 -0.8433,0.411959 -1.96388,0.602181 -3.11558,0.529926 -2.39802,-0.150435 -4.27271,-1.373621 -4.18971,-2.728931 0.0832,-1.355144 2.09315,-2.340132 4.49158,-2.196751 1.15194,0.06884 2.24088,0.394423 3.0276,0.906359 0.78661,0.511854 1.20607,1.167834 1.16596,1.822801 z m 1.67158,7.507687 c 0.0638,-0.977885 -0.55849,-1.959975 -1.72967,-2.728638 -1.17141,-0.768807 -2.79483,-1.260613 -4.51383,-1.369543 -3.57899,-0.226837 -6.58427,1.231911 -6.716193,3.252368 -0.131869,2.020982 2.658443,3.858209 6.236743,4.097754 1.71852,0.115064 3.39222,-0.161856 4.65344,-0.771722 1.26107,-0.609795 2.00568,-1.502321 2.06951,-2.480219 z m -2.13835,-0.139559 c -0.0427,0.654483 -0.54146,1.251979 -1.3862,1.660557 -0.84481,0.408623 -1.96613,0.594717 -3.11754,0.518233 -2.39747,-0.159243 -4.26767,-1.389577 -4.17925,-2.745485 0.0886,-1.355741 2.10277,-2.332489 4.50057,-2.178982 1.15161,0.07371 2.2392,0.403874 3.02378,0.918891 0.78449,0.514947 1.20131,1.172312 1.15864,1.826786 z m 1.64537,7.509168 c 0.0668,-0.976951 -0.55229,-1.960393 -1.72088,-2.732702 -1.16875,-0.772427 -2.79052,-1.269958 -4.50909,-1.384966 -3.57819,-0.239497 -6.588763,1.209198 -6.727154,3.231331 -0.138335,2.022659 2.647034,3.868065 6.224714,4.11733 1.71818,0.11973 3.39272,-0.152619 4.6556,-0.758534 1.26277,-0.605866 2.00996,-1.495493 2.07681,-2.472459 z m -2.13793,-0.146245 c -0.0448,0.654022 -0.54526,1.249704 -1.39119,1.655647 -0.84598,0.405979 -1.96787,0.588864 -3.11905,0.509098 -2.39703,-0.16608 -4.26375,-1.40202 -4.17103,-2.758591 0.0929,-1.356404 2.11047,-2.326562 4.50774,-2.164897 1.15135,0.07762 2.23786,0.411482 3.02072,0.928934 0.78279,0.517394 1.19751,1.175797 1.15281,1.829809 z m 1.62529,7.509246 c 0.069,-0.976064 -0.5477,-1.960343 -1.7143,-2.735333 -1.16674,-0.77508 -2.78724,-1.277002 -4.50547,-1.396675 -3.57757,-0.249217 -6.592206,1.19189 -6.7354,3.215796 -0.143139,2.024432 2.6388,3.875713 6.21602,4.131757 1.71792,0.122983 3.39306,-0.146166 4.65709,-0.749162 1.26397,-0.602968 2.01301,-1.490304 2.08206,-2.466383 z m -2.1376,-0.151175 c -0.0463,0.653592 -0.54804,1.247866 -1.39481,1.651866 -0.84681,0.404026 -1.96911,0.584622 -3.12012,0.50252 -2.39671,-0.170948 -4.26095,-1.410948 -4.16504,-2.768248 0.0961,-1.357133 2.11623,-2.32235 4.51311,-2.154498 1.15114,0.08059 2.23682,0.41725 3.01838,0.93649 0.78152,0.519194 1.19465,1.178289 1.14848,1.83187 z m 1.61134,7.507921 c 0.0704,-0.975225 -0.54469,-1.959824 -1.70994,-2.736529 -1.16534,-0.776769 -2.78498,-1.281746 -4.50295,-1.404672 -3.57712,-0.255997 -6.594609,1.179985 -6.740941,3.205761 -0.146278,2.026302 2.633731,3.881154 6.210661,4.141037 1.71774,0.124823 3.39324,-0.142498 4.65791,-0.743607 1.26466,-0.601101 2.01482,-1.486752 2.08526,-2.46199 z m -2.13738,-0.154348 c -0.0472,0.653192 -0.54977,1.246464 -1.39705,1.649213 -0.8473,0.402764 -1.96985,0.581991 -3.12074,0.498498 -2.3965,-0.173844 -4.25927,-1.416362 -4.16128,-2.774456 0.0981,-1.357925 2.12005,-2.319853 4.51665,-2.147784 1.15099,0.08262 2.23612,0.421178 3.0168,0.941559 0.78065,0.520346 1.19275,1.179788 1.14562,1.83297 z m 1.60356,7.5051897 c 0.071,-0.9744317 -0.54331,-1.9588347 -1.70782,-2.7362897 -1.16457,-0.777491 -2.78374,-1.284188 -4.50153,-1.408955 -3.57685,-0.259836 -6.595973,1.173483 -6.743777,3.201227 -0.09137,1.2542633 0.936789,2.4428166 2.580727,3.2288832 1.01434,0.4849504 2.26307,0.8167418 3.62789,0.9162861 1.32142,0.096395 2.61795,-0.039294 3.72169,-0.3803998 0.33097,-0.1022654 0.64461,-0.2229947 0.93639,-0.3614687 1.26485,-0.600267 2.01538,-1.484838 2.08643,-2.4592831 z m -2.13727,-0.1557629 c -0.0476,0.652824 -0.55048,1.2455003 -1.39793,1.6476878 -0.84745,0.4021942 -1.97009,0.5809706 -3.12092,0.4970342 -2.3964,-0.1747709 -4.258689,-1.4182617 -4.15974,-2.7772141 0.0991,-1.3587847 2.12195,-2.3190727 4.51838,-2.1447567 1.15088,0.08369 2.23572,0.423265 3.01595,0.944139 0.7802,0.520853 1.1918,1.1802949 1.14426,1.8331098 z m 1.60156,7.5022295 c 0.071,-0.9739623 -0.54326,-1.9579974 -1.70763,-2.7354589 -1.1644,-0.7774801 -2.78346,-1.2846132 -4.50117,-1.4098561 -3.57672,-0.260831 -6.596345,1.1719871 -6.744325,3.2010476 -0.147928,2.02959498 2.632097,3.8854386 6.209035,4.1453509 1.71767,0.1248315 3.3933,-0.1424297 4.65796,-0.7426566 1.26472,-0.60025537 2.01512,-1.48445061 2.08613,-2.4584269 z m -2.13726,-0.1558041 c -0.0476,0.6526137 -0.55042,1.24511889 -1.39782,1.64729609 -0.84738,0.40217774 -1.97002,0.58112386 -3.12086,0.49736819 -2.39646,-0.17439716 -4.258954,-1.41777678 -4.15992,-2.77732358 0.09919,-1.359376 2.12227,-2.3194275 4.51865,-2.1446486 1.15084,0.083916 2.23564,0.4236889 3.01578,0.9445638 0.78014,0.5208608 1.1917,1.1801399 1.14417,1.8327441 z m 1.60409,7.4979005 c 0.0703,-0.9732637 -0.54452,-1.9562735 -1.70922,-2.7329195 -1.16468,-0.7766365 -2.78398,-1.2833181 -4.5017,-1.4080934 -3.576833,-0.2598645 -6.596197,1.1743754 -6.742915,3.2056595 -0.146665,2.0318185 2.63547,3.8851844 6.212685,4.1411403 1.71776,0.1229287 3.39317,-0.1461563 4.65716,-0.7472428 1.26411,-0.6011366 2.01369,-1.4852667 2.08399,-2.4585441 z m -2.13738,-0.1543332 c -0.0471,0.6523117 -0.54945,1.2449027 -1.39648,1.6476687 -0.84699,0.4027568 -1.9695,0.5827768 -3.1204,0.5001367 -2.39663,-0.172077 -4.260352,-1.413923 -4.162193,-2.7744924 0.09831,-1.3603986 2.121063,-2.3215494 4.517533,-2.1477487 1.15087,0.083445 2.23585,0.422769 3.01624,0.9430888 0.78041,0.5203181 1.19236,1.1790445 1.1453,1.8313469 z m 1.61266,7.4916015 c 0.0687,-0.972613 -0.54741,-1.954074 -1.71307,-2.728924 -1.16561,-0.7748123 -2.78554,-1.2796849 -4.50336,-1.4025574 -3.577124,-0.2559091 -6.595004,1.1822569 -6.738762,3.2158654 -0.143705,2.034143 2.642053,3.88269 6.219732,4.131701 1.71793,0.119591 3.39288,-0.152714 4.65569,-0.755709 1.26297,-0.603067 2.011,-1.487749 2.07977,-2.460376 z m -2.13761,-0.151076 c -0.0461,0.652042 -0.54743,1.245132 -1.39375,1.64919 -0.84626,0.404038 -1.96847,0.586068 -3.11949,0.505505 -2.39691,-0.167755 -4.262883,-1.406499 -4.166737,-2.768158 0.0963,-1.361489 2.117897,-2.3254172 4.514577,-2.154597 1.15096,0.08201 2.23639,0.419978 3.01745,0.939086 0.7811,0.519118 1.194,1.176941 1.14795,1.828974 z m 1.62747,7.483882 c 0.0664,-0.972011 -0.55193,-1.9514 -1.71919,-2.723473 -1.16717,-0.772007 -2.78814,-1.273714 -4.50613,-1.393248 -3.577596,-0.248965 -6.592767,1.195631 -6.731868,3.231666 -0.139045,2.036568 2.651846,3.877955 6.230158,4.117032 1.7182,0.114818 3.39244,-0.162103 4.65356,-0.768056 1.26132,-0.606046 2.00704,-1.491896 2.07347,-2.463921 z m -2.13794,-0.146034 c -0.0446,0.651805 -0.54437,1.245807 -1.38963,1.65186 -0.84518,0.406023 -1.96693,0.590997 -3.11813,0.513473 -2.397317,-0.16143 -4.26655,-1.395503 -4.173553,-2.75832 0.09315,-1.362647 2.112773,-2.33103 4.509783,-2.165193 1.15109,0.07962 2.23725,0.415316 3.01942,0.932554 0.78222,0.517262 1.1966,1.17383 1.15211,1.825626 z m 1.64852,7.474742 c 0.0632,-0.971458 -0.55807,-1.94825 -1.72757,-2.716565 -1.16936,-0.768223 -2.79178,-1.265404 -4.51004,-1.380166 -3.578228,-0.239032 -6.589471,1.214499 -6.722213,3.25306 -0.132686,2.039096 2.664846,3.870979 6.243983,4.097135 1.71855,0.10861 3.39184,-0.174324 4.65075,-0.784283 1.25915,-0.610075 2.00182,-1.497709 2.06509,-2.469181 z m -2.13837,-0.139205 c -0.0425,0.6516 -0.54027,1.246928 -1.38413,1.655678 -0.84375,0.408711 -1.96487,0.597565 -3.1163,0.52404 -2.397855,-0.153102 -4.271363,-1.380935 -4.182654,-2.744978 0.08886,-1.363873 2.105692,-2.338389 4.503154,-2.179537 1.15129,0.07626 2.23844,0.408782 3.02213,0.923495 0.78377,0.514748 1.20018,1.169711 1.1578,1.821302 z m 1.67581,7.464181 c 0.0593,-0.970952 -0.56584,-1.944625 -1.73821,-2.708202 -1.17219,-0.763457 -2.79647,-1.254756 -4.51507,-1.36331 -3.57904,-0.226109 -6.585137,1.23886 -6.70982,3.280049 -0.124625,2.041723 2.681053,3.861763 6.2612,4.072008 1.71898,0.100968 3.39109,-0.189376 4.64727,-0.804389 1.25647,-0.615154 1.99534,-1.505189 2.05463,-2.476156 z m -2.13891,-0.130591 c -0.0398,0.651429 -0.53511,1.248495 -1.37722,1.660645 -0.84199,0.412101 -1.96232,0.605771 -3.11405,0.537208 -2.3985,-0.142773 -4.277292,-1.362798 -4.194009,-2.728134 0.08344,-1.365166 2.096653,-2.347493 4.494679,-2.197629 1.15154,0.07194 2.23996,0.400378 3.02561,0.911907 0.78573,0.511577 1.20472,1.164584 1.16499,1.816003 z m 1.70937,7.45301 c 0.0301,-0.535669 -0.14807,-1.071098 -0.51125,-1.570853 -0.29517,-0.406 -0.71263,-0.788522 -1.23989,-1.12834 -1.17565,-0.757711 -2.80219,-1.24177 -4.52122,-1.342681 -2.609438,-0.153211 -4.908426,0.589708 -6.010126,1.796899 0,0 0,0 0,0 -0.409932,0.448883 -0.653536,0.961575 -0.684764,1.51495 -0.115236,2.043679 2.699637,3.850448 6.2812,4.04256 1.71954,0.09225 3.39044,-0.206542 4.64353,-0.827428 1.25345,-0.62107 1.98794,-1.514146 2.04252,-2.485107 z m -2.1396,-0.120454 c -0.0367,0.651493 -0.52908,1.250743 -1.3692,1.666886 -0.83998,0.416079 -1.95947,0.615269 -3.11158,0.552382 -2.399396,-0.130959 -4.284213,-1.342083 -4.207275,-2.708385 0.03306,-0.585783 0.422102,-1.103445 1.045138,-1.492234 0.828598,-0.517262 2.070138,-0.805989 3.439397,-0.726716 1.15185,0.06667 2.24182,0.390103 3.02984,0.897792 0.10818,0.06969 0.20946,0.142083 0.30361,0.216794 0.59177,0.469746 0.90164,1.031397 0.87007,1.593481 z m 1.74813,7.438633 c 0.0489,-0.969505 -0.58612,-1.935179 -1.76608,-2.686474 -1.17971,-0.751136 -2.80885,-1.22697 -4.5285,-1.31917 -3.58123,-0.192054 -6.574097,1.302662 -6.67755,3.350862 -0.103425,2.049452 2.724043,3.838498 6.3068,4.006283 1.72004,0.08057 3.38909,-0.229502 4.63802,-0.857625 1.2494,-0.628363 1.97836,-1.524334 2.02731,-2.493876 z m -2.1404,-0.108039 c -0.0329,0.650938 -0.52168,1.252442 -1.3592,1.673475 -0.83733,0.420945 -1.95563,0.627346 -3.10811,0.571909 -2.400226,-0.115444 -4.293051,-1.315026 -4.22402,-2.684088 0.06918,-1.368679 2.073064,-2.371403 4.47265,-2.245095 1.15226,0.06063 2.24404,0.378372 3.03483,0.881624 0.79093,0.503324 1.21666,1.151255 1.18385,1.802175 z m 1.7986,7.41599 c 0.0413,-0.968047 -0.60073,-1.927309 -1.78596,-2.669372 -1.18488,-0.741841 -2.81741,-1.20656 -4.53757,-1.287078 -3.582563,-0.167735 -6.56532,1.3487 -6.652919,3.402587 -0.08756,2.05514 2.755575,3.820643 6.339403,3.957013 1.720466,0.06549 3.386826,-0.25912 4.630186,-0.896855 1.24394,-0.638033 1.96547,-1.538212 2.00686,-2.506295 z m -2.14111,-0.09139 c -0.0278,0.650356 -0.51171,1.254993 -1.34569,1.682511 -0.83372,0.427403 -1.95028,0.643193 -3.10307,0.597488 -2.400975,-0.09518 -4.303882,-1.279322 -4.245465,-2.651087 0.05857,-1.371382 2.055297,-2.388971 4.455745,-2.279741 1.15262,0.05243 2.2467,0.36237 3.0411,0.859409 0.79456,0.497137 1.22512,1.141083 1.19738,1.79142 z m 1.86356,7.388799 c 0.0319,-0.966546 -0.61911,-1.918007 -1.81092,-2.648399 -1.19136,-0.730111 -2.82799,-1.18043 -4.548576,-1.245862 -3.583705,-0.136325 -6.553042,1.407503 -6.62073,3.466994 -0.06764,2.060744 2.794226,3.796882 6.379011,3.894748 1.720825,0.047 3.383655,-0.295395 4.620025,-0.945118 1.23706,-0.650082 1.94928,-1.55578 1.98119,-2.522363 z m -2.14173,-0.0705 c -0.0215,0.649745 -0.4992,1.258395 -1.32867,1.693991 -0.82919,0.435454 -1.94343,0.662813 -3.096489,0.629118 -2.401634,-0.07017 -4.31669,-1.234968 -4.2716,-2.609378 0.04524,-1.374029 2.032586,-2.410286 4.433771,-2.322885 1.152928,0.04195 2.249798,0.341887 3.048658,0.83108 0.79909,0.489318 1.23571,1.128348 1.21433,1.778074 z m 1.94299,7.357058 c 0.0204,-0.965004 -0.64125,-1.907271 -1.84096,-2.623555 -1.19914,-0.715947 -2.84057,-1.148579 -4.561515,-1.195523 -3.584648,-0.09782 -6.537273,1.479072 -6.580982,3.544082 -0.04364,2.066262 2.839986,3.767216 6.425624,3.81949 1.721113,0.02511 3.379573,-0.338328 4.607543,-1.002412 1.22876,-0.66451 1.92979,-1.57704 1.95029,-2.542082 z m -2.14227,-0.04537 c -0.0138,0.649107 -0.48413,1.262648 -1.30815,1.707916 -0.82369,0.445097 -1.93505,0.686205 -3.08834,0.6668 -2.402213,-0.04041 -4.331476,-1.181965 -4.302428,-2.558964 0.02921,-1.376619 2.004934,-2.435346 4.406739,-2.374524 1.153179,0.02918 2.253299,0.316922 3.057519,0.796638 0.80449,0.479866 1.24838,1.113046 1.23466,1.762134 z m 2.03689,7.320769 c 0.007,-0.96342 -0.66713,-1.895104 -1.87605,-2.594841 -1.20825,-0.699349 -2.85517,-1.111006 -4.576403,-1.13606 -3.585385,-0.05223 -6.518024,1.563409 -6.533678,3.633851 -0.01557,2.071693 2.892848,3.731647 6.479243,3.731239 1.721328,-1.76e-4 3.374568,-0.387919 4.592728,-1.06874 1.21905,-0.681317 1.907,-1.601989 1.91416,-2.565449 z m -2.14271,-0.01601 c -0.005,0.648443 -0.4665,1.267755 -1.28413,1.724289 -0.81725,0.45633 -1.92517,0.713368 -3.078632,0.710533 -2.402715,-0.0059 -4.348235,-1.120316 -4.337948,-2.499845 0.01045,-1.379151 1.972346,-2.464152 4.374643,-2.43466 1.153387,0.01414 2.257227,0.287476 3.067677,0.756084 0.81077,0.46878 1.26317,1.095179 1.25839,1.743599 z"
       id="path5237"
       inkscape:connector-curvature="0"
       sodipodi:nodetypes="ccc"
       inkscape:path-effect="#path-effect5251"
       inkscape:original-d="M 93.309214,88.093513 C 75.827829,10.756534 -38.538739,-69.924276 61.339761,-143.21078 136.91074,-216.49527 99.434132,-20.866515 99.547157,82.802989" />
  </g>
</svg>
